<mxfile host="app.diagrams.net" modified="2023-07-11T08:22:09.549Z" agent="Mozilla/5.0 (Windows NT 10.0; Win64; x64) AppleWebKit/537.36 (KHTML, like Gecko) Chrome/114.0.0.0 Safari/537.36" etag="xOzsPMwZ4IXRMNEmMk1B" version="21.6.1" type="device">
  <diagram name="페이지-1" id="71CP7K-xA_H524tfC2j_">
    <mxGraphModel dx="2074" dy="2325" grid="1" gridSize="10" guides="1" tooltips="1" connect="1" arrows="1" fold="1" page="1" pageScale="1" pageWidth="827" pageHeight="1169" math="0" shadow="0">
      <root>
        <mxCell id="0" />
        <mxCell id="1" parent="0" />
        <mxCell id="IP1F_LFjxFDL6-v84dJm-4" value="" style="ellipse;html=1;shape=startState;fillColor=#000000;strokeColor=#ff0000;" parent="1" vertex="1">
          <mxGeometry x="1060" y="-895" width="30" height="30" as="geometry" />
        </mxCell>
        <mxCell id="IP1F_LFjxFDL6-v84dJm-5" value="" style="edgeStyle=orthogonalEdgeStyle;html=1;verticalAlign=bottom;endArrow=open;endSize=8;strokeColor=#ff0000;rounded=0;exitX=1;exitY=0.5;exitDx=0;exitDy=0;" parent="1" source="IP1F_LFjxFDL6-v84dJm-4" edge="1">
          <mxGeometry relative="1" as="geometry">
            <mxPoint x="1210" y="-880" as="targetPoint" />
          </mxGeometry>
        </mxCell>
        <mxCell id="IP1F_LFjxFDL6-v84dJm-7" value="View에서&lt;br&gt;event발생 시" style="shape=note;whiteSpace=wrap;html=1;backgroundOutline=1;fontColor=#000000;darkOpacity=0.05;fillColor=#FFF9B2;strokeColor=none;fillStyle=solid;direction=west;gradientDirection=north;gradientColor=#FFF2A1;shadow=1;size=20;pointerEvents=1;" parent="1" vertex="1">
          <mxGeometry x="1040" y="-855" width="140" height="90" as="geometry" />
        </mxCell>
        <mxCell id="IP1F_LFjxFDL6-v84dJm-22" value="" style="endArrow=open;endFill=1;endSize=12;html=1;rounded=0;exitX=0;exitY=1;exitDx=0;exitDy=0;entryX=0.464;entryY=0.005;entryDx=0;entryDy=0;entryPerimeter=0;" parent="1" source="IP1F_LFjxFDL6-v84dJm-2" target="IP1F_LFjxFDL6-v84dJm-8" edge="1">
          <mxGeometry width="160" relative="1" as="geometry">
            <mxPoint x="434" y="-325" as="sourcePoint" />
            <mxPoint x="550" y="-485" as="targetPoint" />
          </mxGeometry>
        </mxCell>
        <mxCell id="IP1F_LFjxFDL6-v84dJm-34" value="" style="group" parent="1" vertex="1" connectable="0">
          <mxGeometry x="1170" y="-105.5" width="320" height="215.5" as="geometry" />
        </mxCell>
        <mxCell id="IP1F_LFjxFDL6-v84dJm-28" value="&lt;p style=&quot;margin:0px;margin-top:4px;text-align:center;&quot;&gt;&lt;i&gt;&amp;lt;&amp;lt;Interface&amp;gt;&amp;gt;&lt;/i&gt;&lt;br&gt;&lt;b&gt;ItemComponent&lt;/b&gt;&lt;/p&gt;&lt;hr size=&quot;1&quot;&gt;&lt;p style=&quot;margin:0px;margin-left:4px;&quot;&gt;&lt;br&gt;&lt;/p&gt;" style="verticalAlign=top;align=left;overflow=fill;fontSize=12;fontFamily=Helvetica;html=1;whiteSpace=wrap;" parent="IP1F_LFjxFDL6-v84dJm-34" vertex="1">
          <mxGeometry width="320" height="215.50000000000003" as="geometry" />
        </mxCell>
        <mxCell id="IP1F_LFjxFDL6-v84dJm-29" value="+ add" style="text;strokeColor=none;fillColor=none;align=left;verticalAlign=top;spacingLeft=4;spacingRight=4;overflow=hidden;rotatable=0;points=[[0,0.5],[1,0.5]];portConstraint=eastwest;whiteSpace=wrap;html=1;" parent="IP1F_LFjxFDL6-v84dJm-34" vertex="1">
          <mxGeometry y="52.08767772511849" width="320" height="26.55450236966825" as="geometry" />
        </mxCell>
        <mxCell id="IP1F_LFjxFDL6-v84dJm-30" value="+ remove" style="text;strokeColor=none;fillColor=none;align=left;verticalAlign=top;spacingLeft=4;spacingRight=4;overflow=hidden;rotatable=0;points=[[0,0.5],[1,0.5]];portConstraint=eastwest;whiteSpace=wrap;html=1;" parent="IP1F_LFjxFDL6-v84dJm-34" vertex="1">
          <mxGeometry y="72.51421800947867" width="100" height="26.55450236966825" as="geometry" />
        </mxCell>
        <mxCell id="IP1F_LFjxFDL6-v84dJm-31" value="+ getChild" style="text;strokeColor=none;fillColor=none;align=left;verticalAlign=top;spacingLeft=4;spacingRight=4;overflow=hidden;rotatable=0;points=[[0,0.5],[1,0.5]];portConstraint=eastwest;whiteSpace=wrap;html=1;" parent="IP1F_LFjxFDL6-v84dJm-34" vertex="1">
          <mxGeometry y="152.1777251184834" width="320" height="26.55450236966825" as="geometry" />
        </mxCell>
        <mxCell id="IP1F_LFjxFDL6-v84dJm-33" value="+ getName" style="text;strokeColor=none;fillColor=none;align=left;verticalAlign=top;spacingLeft=4;spacingRight=4;overflow=hidden;rotatable=0;points=[[0,0.5],[1,0.5]];portConstraint=eastwest;whiteSpace=wrap;html=1;" parent="IP1F_LFjxFDL6-v84dJm-34" vertex="1">
          <mxGeometry y="99.06872037914692" width="320" height="26.55450236966825" as="geometry" />
        </mxCell>
        <mxCell id="IP1F_LFjxFDL6-v84dJm-36" value="" style="group" parent="1" vertex="1" connectable="0">
          <mxGeometry x="1210" y="-910" width="250" height="180" as="geometry" />
        </mxCell>
        <mxCell id="IP1F_LFjxFDL6-v84dJm-2" value="&lt;p style=&quot;margin:0px;margin-top:4px;text-align:center;&quot;&gt;&lt;i&gt;&amp;lt;&amp;lt;Interface&amp;gt;&amp;gt;&lt;/i&gt;&lt;br&gt;&lt;b&gt;GachaModelController&lt;/b&gt;&lt;/p&gt;&lt;p style=&quot;margin:0px;margin-left:4px;&quot;&gt;&lt;br&gt;&lt;br&gt;&lt;/p&gt;&lt;hr size=&quot;1&quot;&gt;&lt;p style=&quot;margin:0px;margin-left:4px;&quot;&gt;&lt;br&gt;&lt;/p&gt;" style="verticalAlign=top;align=left;overflow=fill;fontSize=12;fontFamily=Helvetica;html=1;whiteSpace=wrap;" parent="IP1F_LFjxFDL6-v84dJm-36" vertex="1">
          <mxGeometry width="250" height="180" as="geometry" />
        </mxCell>
        <mxCell id="IP1F_LFjxFDL6-v84dJm-3" style="edgeStyle=orthogonalEdgeStyle;rounded=0;orthogonalLoop=1;jettySize=auto;html=1;exitX=0.5;exitY=1;exitDx=0;exitDy=0;" parent="IP1F_LFjxFDL6-v84dJm-36" source="IP1F_LFjxFDL6-v84dJm-2" target="IP1F_LFjxFDL6-v84dJm-2" edge="1">
          <mxGeometry relative="1" as="geometry" />
        </mxCell>
        <mxCell id="IP1F_LFjxFDL6-v84dJm-17" value="+&amp;nbsp; createGachaModel" style="text;strokeColor=none;fillColor=none;align=left;verticalAlign=top;spacingLeft=4;spacingRight=4;overflow=hidden;rotatable=0;points=[[0,0.5],[1,0.5]];portConstraint=eastwest;whiteSpace=wrap;html=1;" parent="IP1F_LFjxFDL6-v84dJm-36" vertex="1">
          <mxGeometry y="70" width="250" height="26" as="geometry" />
        </mxCell>
        <mxCell id="IP1F_LFjxFDL6-v84dJm-18" value="+&amp;nbsp; saveGachaModel" style="text;strokeColor=none;fillColor=none;align=left;verticalAlign=top;spacingLeft=4;spacingRight=4;overflow=hidden;rotatable=0;points=[[0,0.5],[1,0.5]];portConstraint=eastwest;whiteSpace=wrap;html=1;" parent="IP1F_LFjxFDL6-v84dJm-36" vertex="1">
          <mxGeometry y="96" width="250" height="26" as="geometry" />
        </mxCell>
        <mxCell id="IP1F_LFjxFDL6-v84dJm-19" value="+&amp;nbsp; loadGachaModel" style="text;strokeColor=none;fillColor=none;align=left;verticalAlign=top;spacingLeft=4;spacingRight=4;overflow=hidden;rotatable=0;points=[[0,0.5],[1,0.5]];portConstraint=eastwest;whiteSpace=wrap;html=1;" parent="IP1F_LFjxFDL6-v84dJm-36" vertex="1">
          <mxGeometry y="122" width="250" height="26" as="geometry" />
        </mxCell>
        <mxCell id="IP1F_LFjxFDL6-v84dJm-20" value="+&amp;nbsp; useGachaModel" style="text;strokeColor=none;fillColor=none;align=left;verticalAlign=top;spacingLeft=4;spacingRight=4;overflow=hidden;rotatable=0;points=[[0,0.5],[1,0.5]];portConstraint=eastwest;whiteSpace=wrap;html=1;" parent="IP1F_LFjxFDL6-v84dJm-36" vertex="1">
          <mxGeometry y="148" width="250" height="26" as="geometry" />
        </mxCell>
        <mxCell id="IP1F_LFjxFDL6-v84dJm-40" value="&lt;p style=&quot;margin:0px;margin-top:4px;text-align:center;&quot;&gt;&lt;i&gt;&amp;lt;&amp;lt;Interface&amp;gt;&amp;gt;&lt;/i&gt;&lt;br&gt;&lt;b&gt;GachaModelDecorator&lt;/b&gt;&lt;/p&gt;&lt;hr size=&quot;1&quot;&gt;&lt;p style=&quot;margin:0px;margin-left:4px;&quot;&gt;&lt;/p&gt;&lt;p style=&quot;margin:0px;margin-left:4px;&quot;&gt;//abstract&lt;/p&gt;" style="verticalAlign=top;align=left;overflow=fill;fontSize=12;fontFamily=Helvetica;html=1;whiteSpace=wrap;" parent="1" vertex="1">
          <mxGeometry x="1973" y="530" width="190" height="140" as="geometry" />
        </mxCell>
        <mxCell id="IP1F_LFjxFDL6-v84dJm-54" value="" style="endArrow=block;dashed=1;endFill=0;endSize=12;html=1;rounded=0;" parent="1" target="IP1F_LFjxFDL6-v84dJm-2" edge="1">
          <mxGeometry width="160" relative="1" as="geometry">
            <mxPoint x="1335" y="-605" as="sourcePoint" />
            <mxPoint x="1330" y="-715" as="targetPoint" />
          </mxGeometry>
        </mxCell>
        <mxCell id="IP1F_LFjxFDL6-v84dJm-55" value="OPMController" style="swimlane;fontStyle=1;align=center;verticalAlign=top;childLayout=stackLayout;horizontal=1;startSize=26;horizontalStack=0;resizeParent=1;resizeParentMax=0;resizeLast=0;collapsible=1;marginBottom=0;whiteSpace=wrap;html=1;" parent="1" vertex="1">
          <mxGeometry x="1255" y="-680" width="160" height="86" as="geometry" />
        </mxCell>
        <mxCell id="IP1F_LFjxFDL6-v84dJm-59" value="f : gachaModel" style="text;strokeColor=none;fillColor=none;align=left;verticalAlign=top;spacingLeft=4;spacingRight=4;overflow=hidden;rotatable=0;points=[[0,0.5],[1,0.5]];portConstraint=eastwest;whiteSpace=wrap;html=1;" parent="IP1F_LFjxFDL6-v84dJm-55" vertex="1">
          <mxGeometry y="26" width="160" height="26" as="geometry" />
        </mxCell>
        <mxCell id="IP1F_LFjxFDL6-v84dJm-57" value="" style="line;strokeWidth=1;fillColor=none;align=left;verticalAlign=middle;spacingTop=-1;spacingLeft=3;spacingRight=3;rotatable=0;labelPosition=right;points=[];portConstraint=eastwest;strokeColor=inherit;" parent="IP1F_LFjxFDL6-v84dJm-55" vertex="1">
          <mxGeometry y="52" width="160" height="8" as="geometry" />
        </mxCell>
        <mxCell id="IP1F_LFjxFDL6-v84dJm-58" value="+ method(type): type" style="text;strokeColor=none;fillColor=none;align=left;verticalAlign=top;spacingLeft=4;spacingRight=4;overflow=hidden;rotatable=0;points=[[0,0.5],[1,0.5]];portConstraint=eastwest;whiteSpace=wrap;html=1;" parent="IP1F_LFjxFDL6-v84dJm-55" vertex="1">
          <mxGeometry y="60" width="160" height="26" as="geometry" />
        </mxCell>
        <mxCell id="IyfgHkf5uxu5Sa50JoVY-48" style="edgeStyle=orthogonalEdgeStyle;rounded=0;orthogonalLoop=1;jettySize=auto;html=1;entryX=-0.024;entryY=0.186;entryDx=0;entryDy=0;entryPerimeter=0;" parent="1" source="IP1F_LFjxFDL6-v84dJm-62" target="IyfgHkf5uxu5Sa50JoVY-25" edge="1">
          <mxGeometry relative="1" as="geometry">
            <Array as="points">
              <mxPoint x="1080" y="79" />
              <mxPoint x="1080" y="835" />
            </Array>
          </mxGeometry>
        </mxCell>
        <mxCell id="IyfgHkf5uxu5Sa50JoVY-49" style="edgeStyle=orthogonalEdgeStyle;rounded=0;orthogonalLoop=1;jettySize=auto;html=1;entryX=0;entryY=0.25;entryDx=0;entryDy=0;" parent="1" source="IP1F_LFjxFDL6-v84dJm-62" target="IyfgHkf5uxu5Sa50JoVY-29" edge="1">
          <mxGeometry relative="1" as="geometry" />
        </mxCell>
        <mxCell id="IyfgHkf5uxu5Sa50JoVY-50" style="edgeStyle=orthogonalEdgeStyle;rounded=0;orthogonalLoop=1;jettySize=auto;html=1;entryX=0.005;entryY=0.192;entryDx=0;entryDy=0;entryPerimeter=0;" parent="1" source="IP1F_LFjxFDL6-v84dJm-62" target="IyfgHkf5uxu5Sa50JoVY-33" edge="1">
          <mxGeometry relative="1" as="geometry" />
        </mxCell>
        <mxCell id="IP1F_LFjxFDL6-v84dJm-62" value="OPMFactory" style="swimlane;fontStyle=1;align=center;verticalAlign=top;childLayout=stackLayout;horizontal=1;startSize=26;horizontalStack=0;resizeParent=1;resizeParentMax=0;resizeLast=0;collapsible=1;marginBottom=0;whiteSpace=wrap;html=1;" parent="1" vertex="1">
          <mxGeometry x="750" y="33" width="160" height="92" as="geometry" />
        </mxCell>
        <mxCell id="IP1F_LFjxFDL6-v84dJm-67" value="" style="group" parent="1" vertex="1" connectable="0">
          <mxGeometry x="690" y="-250" width="280" height="220" as="geometry" />
        </mxCell>
        <mxCell id="IP1F_LFjxFDL6-v84dJm-8" value="&lt;p style=&quot;margin:0px;margin-top:4px;text-align:center;&quot;&gt;&lt;i&gt;&amp;lt;&amp;lt;Interface&amp;gt;&amp;gt;&lt;/i&gt;&lt;br&gt;&lt;b&gt;GachaModelAbstractFactory&lt;/b&gt;&lt;/p&gt;&lt;hr size=&quot;1&quot;&gt;&lt;p style=&quot;margin:0px;margin-left:4px;&quot;&gt;&lt;br&gt;&lt;/p&gt;&lt;p style=&quot;margin:0px;margin-left:4px;&quot;&gt;&lt;br&gt;&lt;/p&gt;" style="verticalAlign=top;align=left;overflow=fill;fontSize=12;fontFamily=Helvetica;html=1;whiteSpace=wrap;" parent="IP1F_LFjxFDL6-v84dJm-67" vertex="1">
          <mxGeometry width="280" height="220" as="geometry" />
        </mxCell>
        <mxCell id="IP1F_LFjxFDL6-v84dJm-23" value="+ createItem" style="text;strokeColor=none;fillColor=none;align=left;verticalAlign=top;spacingLeft=4;spacingRight=4;overflow=hidden;rotatable=0;points=[[0,0.5],[1,0.5]];portConstraint=eastwest;whiteSpace=wrap;html=1;" parent="IP1F_LFjxFDL6-v84dJm-67" vertex="1">
          <mxGeometry y="61" width="280" height="26" as="geometry" />
        </mxCell>
        <mxCell id="IP1F_LFjxFDL6-v84dJm-24" value="+ createUseItem" style="text;strokeColor=none;fillColor=none;align=left;verticalAlign=top;spacingLeft=4;spacingRight=4;overflow=hidden;rotatable=0;points=[[0,0.5],[1,0.5]];portConstraint=eastwest;whiteSpace=wrap;html=1;" parent="IP1F_LFjxFDL6-v84dJm-67" vertex="1">
          <mxGeometry y="87" width="280" height="26" as="geometry" />
        </mxCell>
        <mxCell id="IP1F_LFjxFDL6-v84dJm-25" value="+ createProbabilityCorrectionRule" style="text;strokeColor=none;fillColor=none;align=left;verticalAlign=top;spacingLeft=4;spacingRight=4;overflow=hidden;rotatable=0;points=[[0,0.5],[1,0.5]];portConstraint=eastwest;whiteSpace=wrap;html=1;" parent="IP1F_LFjxFDL6-v84dJm-67" vertex="1">
          <mxGeometry y="139" width="280" height="26" as="geometry" />
        </mxCell>
        <mxCell id="IP1F_LFjxFDL6-v84dJm-26" value="+ createSkyRule" style="text;strokeColor=none;fillColor=none;align=left;verticalAlign=top;spacingLeft=4;spacingRight=4;overflow=hidden;rotatable=0;points=[[0,0.5],[1,0.5]];portConstraint=eastwest;whiteSpace=wrap;html=1;" parent="IP1F_LFjxFDL6-v84dJm-67" vertex="1">
          <mxGeometry y="159" width="280" height="26" as="geometry" />
        </mxCell>
        <mxCell id="IP1F_LFjxFDL6-v84dJm-27" value="+ createProbability" style="text;strokeColor=none;fillColor=none;align=left;verticalAlign=top;spacingLeft=4;spacingRight=4;overflow=hidden;rotatable=0;points=[[0,0.5],[1,0.5]];portConstraint=eastwest;whiteSpace=wrap;html=1;" parent="IP1F_LFjxFDL6-v84dJm-67" vertex="1">
          <mxGeometry y="113" width="280" height="26" as="geometry" />
        </mxCell>
        <mxCell id="IP1F_LFjxFDL6-v84dJm-66" value="+ createGachaModel" style="text;strokeColor=none;fillColor=none;align=left;verticalAlign=top;spacingLeft=4;spacingRight=4;overflow=hidden;rotatable=0;points=[[0,0.5],[1,0.5]];portConstraint=eastwest;whiteSpace=wrap;html=1;" parent="IP1F_LFjxFDL6-v84dJm-67" vertex="1">
          <mxGeometry y="35" width="210" height="26" as="geometry" />
        </mxCell>
        <mxCell id="IP1F_LFjxFDL6-v84dJm-68" value="" style="endArrow=block;dashed=1;endFill=0;endSize=12;html=1;rounded=0;exitX=0.5;exitY=0;exitDx=0;exitDy=0;entryX=0.5;entryY=1;entryDx=0;entryDy=0;" parent="1" source="IP1F_LFjxFDL6-v84dJm-62" target="IP1F_LFjxFDL6-v84dJm-8" edge="1">
          <mxGeometry width="160" relative="1" as="geometry">
            <mxPoint x="690" y="-5" as="sourcePoint" />
            <mxPoint x="850" y="-5" as="targetPoint" />
          </mxGeometry>
        </mxCell>
        <mxCell id="IP1F_LFjxFDL6-v84dJm-69" value="" style="endArrow=block;dashed=1;endFill=0;endSize=12;html=1;rounded=0;entryX=0.5;entryY=1;entryDx=0;entryDy=0;exitX=0.5;exitY=0;exitDx=0;exitDy=0;" parent="1" source="VPz0jWfz6DTFJ0YynrPK-1" target="IP1F_LFjxFDL6-v84dJm-37" edge="1">
          <mxGeometry width="160" relative="1" as="geometry">
            <mxPoint x="1766.5" y="382" as="sourcePoint" />
            <mxPoint x="1711.5" y="222" as="targetPoint" />
          </mxGeometry>
        </mxCell>
        <mxCell id="IyfgHkf5uxu5Sa50JoVY-58" style="edgeStyle=orthogonalEdgeStyle;rounded=0;orthogonalLoop=1;jettySize=auto;html=1;entryX=1;entryY=1;entryDx=0;entryDy=0;" parent="1" source="VPz0jWfz6DTFJ0YynrPK-1" target="IP1F_LFjxFDL6-v84dJm-28" edge="1">
          <mxGeometry relative="1" as="geometry" />
        </mxCell>
        <mxCell id="IyfgHkf5uxu5Sa50JoVY-59" style="edgeStyle=orthogonalEdgeStyle;rounded=0;orthogonalLoop=1;jettySize=auto;html=1;entryX=1;entryY=0.25;entryDx=0;entryDy=0;" parent="1" source="VPz0jWfz6DTFJ0YynrPK-1" target="IP1F_LFjxFDL6-v84dJm-46" edge="1">
          <mxGeometry relative="1" as="geometry" />
        </mxCell>
        <mxCell id="IyfgHkf5uxu5Sa50JoVY-60" style="edgeStyle=orthogonalEdgeStyle;rounded=0;orthogonalLoop=1;jettySize=auto;html=1;entryX=1;entryY=0.25;entryDx=0;entryDy=0;" parent="1" source="VPz0jWfz6DTFJ0YynrPK-1" target="IP1F_LFjxFDL6-v84dJm-41" edge="1">
          <mxGeometry relative="1" as="geometry" />
        </mxCell>
        <mxCell id="IyfgHkf5uxu5Sa50JoVY-61" style="edgeStyle=orthogonalEdgeStyle;rounded=0;orthogonalLoop=1;jettySize=auto;html=1;entryX=1;entryY=0.25;entryDx=0;entryDy=0;" parent="1" source="VPz0jWfz6DTFJ0YynrPK-1" target="IP1F_LFjxFDL6-v84dJm-70" edge="1">
          <mxGeometry relative="1" as="geometry" />
        </mxCell>
        <mxCell id="IyfgHkf5uxu5Sa50JoVY-62" style="edgeStyle=orthogonalEdgeStyle;rounded=0;orthogonalLoop=1;jettySize=auto;html=1;entryX=1;entryY=0.25;entryDx=0;entryDy=0;" parent="1" source="VPz0jWfz6DTFJ0YynrPK-1" target="gSzAR_MlpIHfEf4KSCXG-1" edge="1">
          <mxGeometry relative="1" as="geometry" />
        </mxCell>
        <mxCell id="VPz0jWfz6DTFJ0YynrPK-1" value="GachaModelImpl" style="swimlane;fontStyle=0;childLayout=stackLayout;horizontal=1;startSize=26;fillColor=none;horizontalStack=0;resizeParent=1;resizeParentMax=0;resizeLast=0;collapsible=1;marginBottom=0;whiteSpace=wrap;html=1;" parent="1" vertex="1">
          <mxGeometry x="1654" y="182" width="205" height="260" as="geometry" />
        </mxCell>
        <mxCell id="VPz0jWfz6DTFJ0YynrPK-2" value="+ field: ItemComponent" style="text;strokeColor=none;fillColor=none;align=left;verticalAlign=top;spacingLeft=4;spacingRight=4;overflow=hidden;rotatable=0;points=[[0,0.5],[1,0.5]];portConstraint=eastwest;whiteSpace=wrap;html=1;" parent="VPz0jWfz6DTFJ0YynrPK-1" vertex="1">
          <mxGeometry y="26" width="205" height="26" as="geometry" />
        </mxCell>
        <mxCell id="VPz0jWfz6DTFJ0YynrPK-3" value="+ field: SkyRule" style="text;strokeColor=none;fillColor=none;align=left;verticalAlign=top;spacingLeft=4;spacingRight=4;overflow=hidden;rotatable=0;points=[[0,0.5],[1,0.5]];portConstraint=eastwest;whiteSpace=wrap;html=1;" parent="VPz0jWfz6DTFJ0YynrPK-1" vertex="1">
          <mxGeometry y="52" width="205" height="26" as="geometry" />
        </mxCell>
        <mxCell id="IyfgHkf5uxu5Sa50JoVY-8" value="+ field: UseItem" style="text;strokeColor=none;fillColor=none;align=left;verticalAlign=top;spacingLeft=4;spacingRight=4;overflow=hidden;rotatable=0;points=[[0,0.5],[1,0.5]];portConstraint=eastwest;whiteSpace=wrap;html=1;" parent="VPz0jWfz6DTFJ0YynrPK-1" vertex="1">
          <mxGeometry y="78" width="205" height="26" as="geometry" />
        </mxCell>
        <mxCell id="IyfgHkf5uxu5Sa50JoVY-7" value="+ field: ProbabilityCorrectionRule" style="text;strokeColor=none;fillColor=none;align=left;verticalAlign=top;spacingLeft=4;spacingRight=4;overflow=hidden;rotatable=0;points=[[0,0.5],[1,0.5]];portConstraint=eastwest;whiteSpace=wrap;html=1;" parent="VPz0jWfz6DTFJ0YynrPK-1" vertex="1">
          <mxGeometry y="104" width="205" height="26" as="geometry" />
        </mxCell>
        <mxCell id="IyfgHkf5uxu5Sa50JoVY-9" value="+ field: GachaAns" style="text;strokeColor=none;fillColor=none;align=left;verticalAlign=top;spacingLeft=4;spacingRight=4;overflow=hidden;rotatable=0;points=[[0,0.5],[1,0.5]];portConstraint=eastwest;whiteSpace=wrap;html=1;" parent="VPz0jWfz6DTFJ0YynrPK-1" vertex="1">
          <mxGeometry y="130" width="205" height="26" as="geometry" />
        </mxCell>
        <mxCell id="IyfgHkf5uxu5Sa50JoVY-10" value="+ field: Random" style="text;strokeColor=none;fillColor=none;align=left;verticalAlign=top;spacingLeft=4;spacingRight=4;overflow=hidden;rotatable=0;points=[[0,0.5],[1,0.5]];portConstraint=eastwest;whiteSpace=wrap;html=1;" parent="VPz0jWfz6DTFJ0YynrPK-1" vertex="1">
          <mxGeometry y="156" width="205" height="26" as="geometry" />
        </mxCell>
        <mxCell id="IyfgHkf5uxu5Sa50JoVY-11" value="+ field: OneAnsGacha" style="text;strokeColor=none;fillColor=none;align=left;verticalAlign=top;spacingLeft=4;spacingRight=4;overflow=hidden;rotatable=0;points=[[0,0.5],[1,0.5]];portConstraint=eastwest;whiteSpace=wrap;html=1;" parent="VPz0jWfz6DTFJ0YynrPK-1" vertex="1">
          <mxGeometry y="182" width="205" height="26" as="geometry" />
        </mxCell>
        <mxCell id="IyfgHkf5uxu5Sa50JoVY-12" value="+ field: Probability" style="text;strokeColor=none;fillColor=none;align=left;verticalAlign=top;spacingLeft=4;spacingRight=4;overflow=hidden;rotatable=0;points=[[0,0.5],[1,0.5]];portConstraint=eastwest;whiteSpace=wrap;html=1;" parent="VPz0jWfz6DTFJ0YynrPK-1" vertex="1">
          <mxGeometry y="208" width="205" height="26" as="geometry" />
        </mxCell>
        <mxCell id="IyfgHkf5uxu5Sa50JoVY-13" value="+ f" style="text;strokeColor=none;fillColor=none;align=left;verticalAlign=top;spacingLeft=4;spacingRight=4;overflow=hidden;rotatable=0;points=[[0,0.5],[1,0.5]];portConstraint=eastwest;whiteSpace=wrap;html=1;" parent="VPz0jWfz6DTFJ0YynrPK-1" vertex="1">
          <mxGeometry y="234" width="205" height="26" as="geometry" />
        </mxCell>
        <mxCell id="IyfgHkf5uxu5Sa50JoVY-5" value="" style="group" parent="1" vertex="1" connectable="0">
          <mxGeometry x="1980" y="70" width="190" height="140" as="geometry" />
        </mxCell>
        <mxCell id="IP1F_LFjxFDL6-v84dJm-60" value="&lt;p style=&quot;margin:0px;margin-top:4px;text-align:center;&quot;&gt;&lt;i&gt;&amp;lt;&amp;lt;Interface&amp;gt;&amp;gt;&lt;/i&gt;&lt;br&gt;&lt;b&gt;GachaAns&lt;/b&gt;&lt;/p&gt;&lt;hr size=&quot;1&quot;&gt;&lt;p style=&quot;margin:0px;margin-left:4px;&quot;&gt;&lt;br&gt;&lt;/p&gt;" style="verticalAlign=top;align=left;overflow=fill;fontSize=12;fontFamily=Helvetica;html=1;whiteSpace=wrap;fontStyle=0" parent="IyfgHkf5uxu5Sa50JoVY-5" vertex="1">
          <mxGeometry width="190" height="140" as="geometry" />
        </mxCell>
        <mxCell id="IyfgHkf5uxu5Sa50JoVY-1" value="+ addItem(int) : void" style="text;strokeColor=none;fillColor=none;align=left;verticalAlign=top;spacingLeft=4;spacingRight=4;overflow=hidden;rotatable=0;points=[[0,0.5],[1,0.5]];portConstraint=eastwest;whiteSpace=wrap;html=1;fontStyle=0" parent="IyfgHkf5uxu5Sa50JoVY-5" vertex="1">
          <mxGeometry y="36" width="160" height="26" as="geometry" />
        </mxCell>
        <mxCell id="IyfgHkf5uxu5Sa50JoVY-2" value="+ getItemVlaue(int) : int" style="text;strokeColor=none;fillColor=none;align=left;verticalAlign=top;spacingLeft=4;spacingRight=4;overflow=hidden;rotatable=0;points=[[0,0.5],[1,0.5]];portConstraint=eastwest;whiteSpace=wrap;html=1;fontStyle=0" parent="IyfgHkf5uxu5Sa50JoVY-5" vertex="1">
          <mxGeometry y="56" width="180" height="26" as="geometry" />
        </mxCell>
        <mxCell id="IyfgHkf5uxu5Sa50JoVY-3" value="+ countUp() : void" style="text;strokeColor=none;fillColor=none;align=left;verticalAlign=top;spacingLeft=4;spacingRight=4;overflow=hidden;rotatable=0;points=[[0,0.5],[1,0.5]];portConstraint=eastwest;whiteSpace=wrap;html=1;fontStyle=0" parent="IyfgHkf5uxu5Sa50JoVY-5" vertex="1">
          <mxGeometry y="80" width="180" height="26" as="geometry" />
        </mxCell>
        <mxCell id="IyfgHkf5uxu5Sa50JoVY-4" value="+ getCount() : void" style="text;strokeColor=none;fillColor=none;align=left;verticalAlign=top;spacingLeft=4;spacingRight=4;overflow=hidden;rotatable=0;points=[[0,0.5],[1,0.5]];portConstraint=eastwest;whiteSpace=wrap;html=1;fontStyle=0" parent="IyfgHkf5uxu5Sa50JoVY-5" vertex="1">
          <mxGeometry y="102" width="180" height="26" as="geometry" />
        </mxCell>
        <mxCell id="IyfgHkf5uxu5Sa50JoVY-6" value="return" style="html=1;verticalAlign=bottom;endArrow=open;dashed=1;endSize=8;edgeStyle=elbowEdgeStyle;elbow=vertical;curved=0;rounded=0;exitX=1;exitY=0.75;exitDx=0;exitDy=0;" parent="1" source="IP1F_LFjxFDL6-v84dJm-37" target="IP1F_LFjxFDL6-v84dJm-60" edge="1">
          <mxGeometry x="0.0054" relative="1" as="geometry">
            <mxPoint x="1624" y="-110" as="sourcePoint" />
            <mxPoint x="1554" y="-46.25" as="targetPoint" />
            <Array as="points" />
            <mxPoint as="offset" />
          </mxGeometry>
        </mxCell>
        <mxCell id="IyfgHkf5uxu5Sa50JoVY-14" value="" style="group" parent="1" vertex="1" connectable="0">
          <mxGeometry x="1661.5" width="190" height="140" as="geometry" />
        </mxCell>
        <mxCell id="IP1F_LFjxFDL6-v84dJm-37" value="&lt;p style=&quot;margin:0px;margin-top:4px;text-align:center;&quot;&gt;&lt;i&gt;&amp;lt;&amp;lt;Interface&amp;gt;&amp;gt;&lt;/i&gt;&lt;br&gt;&lt;b&gt;GachaModel&lt;/b&gt;&lt;/p&gt;&lt;hr size=&quot;1&quot;&gt;&lt;p style=&quot;margin:0px;margin-left:4px;&quot;&gt;&lt;br&gt;&lt;/p&gt;" style="verticalAlign=top;align=left;overflow=fill;fontSize=12;fontFamily=Helvetica;html=1;whiteSpace=wrap;" parent="IyfgHkf5uxu5Sa50JoVY-14" vertex="1">
          <mxGeometry width="190" height="140" as="geometry" />
        </mxCell>
        <mxCell id="IP1F_LFjxFDL6-v84dJm-38" value="+ doGacha() : GachaAns" style="text;strokeColor=none;fillColor=none;align=left;verticalAlign=top;spacingLeft=4;spacingRight=4;overflow=hidden;rotatable=0;points=[[0,0.5],[1,0.5]];portConstraint=eastwest;whiteSpace=wrap;html=1;" parent="IyfgHkf5uxu5Sa50JoVY-14" vertex="1">
          <mxGeometry y="50" width="190" height="26" as="geometry" />
        </mxCell>
        <mxCell id="IyfgHkf5uxu5Sa50JoVY-17" value="" style="group" parent="1" vertex="1" connectable="0">
          <mxGeometry x="1241" y="320" width="190" height="140" as="geometry" />
        </mxCell>
        <mxCell id="IP1F_LFjxFDL6-v84dJm-46" value="&lt;p style=&quot;margin:0px;margin-top:4px;text-align:center;&quot;&gt;&lt;i&gt;&amp;lt;&amp;lt;Interface&amp;gt;&amp;gt;&lt;/i&gt;&lt;br&gt;&lt;b&gt;Probability&lt;/b&gt;&lt;/p&gt;&lt;br&gt;&lt;hr size=&quot;1&quot;&gt;&lt;p style=&quot;margin:0px;margin-left:4px;&quot;&gt;&lt;br&gt;&lt;/p&gt;" style="verticalAlign=top;align=left;overflow=fill;fontSize=12;fontFamily=Helvetica;html=1;whiteSpace=wrap;fontStyle=0" parent="IyfgHkf5uxu5Sa50JoVY-17" vertex="1">
          <mxGeometry width="190" height="140" as="geometry" />
        </mxCell>
        <mxCell id="IP1F_LFjxFDL6-v84dJm-49" value="+ add" style="text;strokeColor=none;fillColor=none;align=left;verticalAlign=top;spacingLeft=4;spacingRight=4;overflow=hidden;rotatable=0;points=[[0,0.5],[1,0.5]];portConstraint=eastwest;whiteSpace=wrap;html=1;fontStyle=0" parent="IyfgHkf5uxu5Sa50JoVY-17" vertex="1">
          <mxGeometry y="52" width="100" height="26" as="geometry" />
        </mxCell>
        <mxCell id="IP1F_LFjxFDL6-v84dJm-50" value="+ remove" style="text;strokeColor=none;fillColor=none;align=left;verticalAlign=top;spacingLeft=4;spacingRight=4;overflow=hidden;rotatable=0;points=[[0,0.5],[1,0.5]];portConstraint=eastwest;whiteSpace=wrap;html=1;fontStyle=0" parent="IyfgHkf5uxu5Sa50JoVY-17" vertex="1">
          <mxGeometry y="78" width="100" height="26" as="geometry" />
        </mxCell>
        <mxCell id="IP1F_LFjxFDL6-v84dJm-51" value="+ get" style="text;strokeColor=none;fillColor=none;align=left;verticalAlign=top;spacingLeft=4;spacingRight=4;overflow=hidden;rotatable=0;points=[[0,0.5],[1,0.5]];portConstraint=eastwest;whiteSpace=wrap;html=1;fontStyle=0" parent="IyfgHkf5uxu5Sa50JoVY-17" vertex="1">
          <mxGeometry y="104" width="100" height="26" as="geometry" />
        </mxCell>
        <mxCell id="IyfgHkf5uxu5Sa50JoVY-18" value="" style="group" parent="1" vertex="1" connectable="0">
          <mxGeometry x="1241" y="640" width="190" height="140" as="geometry" />
        </mxCell>
        <mxCell id="IP1F_LFjxFDL6-v84dJm-41" value="&lt;p style=&quot;margin:0px;margin-top:4px;text-align:center;&quot;&gt;&lt;i&gt;&amp;lt;&amp;lt;Interface&amp;gt;&amp;gt;&lt;/i&gt;&lt;br&gt;&lt;b&gt;UseItem&lt;/b&gt;&lt;/p&gt;&lt;hr size=&quot;1&quot;&gt;&lt;p style=&quot;margin:0px;margin-left:4px;&quot;&gt;&lt;br&gt;&lt;/p&gt;" style="verticalAlign=top;align=left;overflow=fill;fontSize=12;fontFamily=Helvetica;html=1;whiteSpace=wrap;" parent="IyfgHkf5uxu5Sa50JoVY-18" vertex="1">
          <mxGeometry width="190" height="140" as="geometry" />
        </mxCell>
        <mxCell id="IP1F_LFjxFDL6-v84dJm-42" value="+ add" style="text;strokeColor=none;fillColor=none;align=left;verticalAlign=top;spacingLeft=4;spacingRight=4;overflow=hidden;rotatable=0;points=[[0,0.5],[1,0.5]];portConstraint=eastwest;whiteSpace=wrap;html=1;" parent="IyfgHkf5uxu5Sa50JoVY-18" vertex="1">
          <mxGeometry y="40" width="100" height="26" as="geometry" />
        </mxCell>
        <mxCell id="IP1F_LFjxFDL6-v84dJm-43" value="+ remove" style="text;strokeColor=none;fillColor=none;align=left;verticalAlign=top;spacingLeft=4;spacingRight=4;overflow=hidden;rotatable=0;points=[[0,0.5],[1,0.5]];portConstraint=eastwest;whiteSpace=wrap;html=1;" parent="IyfgHkf5uxu5Sa50JoVY-18" vertex="1">
          <mxGeometry y="66" width="100" height="26" as="geometry" />
        </mxCell>
        <mxCell id="IP1F_LFjxFDL6-v84dJm-44" value="+ getUseItem" style="text;strokeColor=none;fillColor=none;align=left;verticalAlign=top;spacingLeft=4;spacingRight=4;overflow=hidden;rotatable=0;points=[[0,0.5],[1,0.5]];portConstraint=eastwest;whiteSpace=wrap;html=1;" parent="IyfgHkf5uxu5Sa50JoVY-18" vertex="1">
          <mxGeometry y="92" width="100" height="26" as="geometry" />
        </mxCell>
        <mxCell id="IyfgHkf5uxu5Sa50JoVY-19" value="" style="group" parent="1" vertex="1" connectable="0">
          <mxGeometry x="1241" y="960" width="190" height="140" as="geometry" />
        </mxCell>
        <mxCell id="IP1F_LFjxFDL6-v84dJm-70" value="&lt;p style=&quot;margin:0px;margin-top:4px;text-align:center;&quot;&gt;&lt;i&gt;&amp;lt;&amp;lt;Interface&amp;gt;&amp;gt;&lt;/i&gt;&lt;br&gt;&lt;b&gt;ProbabilityCorrectionRule&lt;/b&gt;&lt;/p&gt;&lt;hr size=&quot;1&quot;&gt;&lt;p style=&quot;margin:0px;margin-left:4px;&quot;&gt;&lt;br&gt;&lt;/p&gt;" style="verticalAlign=top;align=left;overflow=fill;fontSize=12;fontFamily=Helvetica;html=1;whiteSpace=wrap;" parent="IyfgHkf5uxu5Sa50JoVY-19" vertex="1">
          <mxGeometry width="190" height="140" as="geometry" />
        </mxCell>
        <mxCell id="IP1F_LFjxFDL6-v84dJm-71" value="+ add" style="text;strokeColor=none;fillColor=none;align=left;verticalAlign=top;spacingLeft=4;spacingRight=4;overflow=hidden;rotatable=0;points=[[0,0.5],[1,0.5]];portConstraint=eastwest;whiteSpace=wrap;html=1;" parent="IyfgHkf5uxu5Sa50JoVY-19" vertex="1">
          <mxGeometry y="40" width="100" height="26" as="geometry" />
        </mxCell>
        <mxCell id="IP1F_LFjxFDL6-v84dJm-72" value="+ remove" style="text;strokeColor=none;fillColor=none;align=left;verticalAlign=top;spacingLeft=4;spacingRight=4;overflow=hidden;rotatable=0;points=[[0,0.5],[1,0.5]];portConstraint=eastwest;whiteSpace=wrap;html=1;" parent="IyfgHkf5uxu5Sa50JoVY-19" vertex="1">
          <mxGeometry y="66" width="100" height="26" as="geometry" />
        </mxCell>
        <mxCell id="IP1F_LFjxFDL6-v84dJm-73" value="+ get" style="text;strokeColor=none;fillColor=none;align=left;verticalAlign=top;spacingLeft=4;spacingRight=4;overflow=hidden;rotatable=0;points=[[0,0.5],[1,0.5]];portConstraint=eastwest;whiteSpace=wrap;html=1;" parent="IyfgHkf5uxu5Sa50JoVY-19" vertex="1">
          <mxGeometry y="92" width="100" height="26" as="geometry" />
        </mxCell>
        <mxCell id="IyfgHkf5uxu5Sa50JoVY-20" value="" style="group" parent="1" vertex="1" connectable="0">
          <mxGeometry x="1234" y="1320" width="192" height="140" as="geometry" />
        </mxCell>
        <mxCell id="gSzAR_MlpIHfEf4KSCXG-1" value="&lt;p style=&quot;margin:0px;margin-top:4px;text-align:center;&quot;&gt;&lt;i&gt;&amp;lt;&amp;lt;Interface&amp;gt;&amp;gt;&lt;/i&gt;&lt;br&gt;&lt;b&gt;SkyRule&lt;/b&gt;&lt;/p&gt;&lt;hr size=&quot;1&quot;&gt;&lt;p style=&quot;margin:0px;margin-left:4px;&quot;&gt;&lt;br&gt;&lt;/p&gt;" style="verticalAlign=top;align=left;overflow=fill;fontSize=12;fontFamily=Helvetica;html=1;whiteSpace=wrap;" parent="IyfgHkf5uxu5Sa50JoVY-20" vertex="1">
          <mxGeometry width="190" height="140" as="geometry" />
        </mxCell>
        <mxCell id="VPz0jWfz6DTFJ0YynrPK-5" value="+ getSky" style="text;strokeColor=none;fillColor=none;align=left;verticalAlign=top;spacingLeft=4;spacingRight=4;overflow=hidden;rotatable=0;points=[[0,0.5],[1,0.5]];portConstraint=eastwest;whiteSpace=wrap;html=1;" parent="IyfgHkf5uxu5Sa50JoVY-20" vertex="1">
          <mxGeometry y="35" width="192" height="26" as="geometry" />
        </mxCell>
        <mxCell id="IyfgHkf5uxu5Sa50JoVY-21" value="ProbabilityImpl" style="swimlane;fontStyle=0;childLayout=stackLayout;horizontal=1;startSize=26;fillColor=none;horizontalStack=0;resizeParent=1;resizeParentMax=0;resizeLast=0;collapsible=1;marginBottom=0;whiteSpace=wrap;html=1;" parent="1" vertex="1">
          <mxGeometry x="1266" y="520" width="140" height="104" as="geometry" />
        </mxCell>
        <mxCell id="IyfgHkf5uxu5Sa50JoVY-22" value="+ field: type" style="text;strokeColor=none;fillColor=none;align=left;verticalAlign=top;spacingLeft=4;spacingRight=4;overflow=hidden;rotatable=0;points=[[0,0.5],[1,0.5]];portConstraint=eastwest;whiteSpace=wrap;html=1;" parent="IyfgHkf5uxu5Sa50JoVY-21" vertex="1">
          <mxGeometry y="26" width="140" height="26" as="geometry" />
        </mxCell>
        <mxCell id="IyfgHkf5uxu5Sa50JoVY-23" value="+ field: type" style="text;strokeColor=none;fillColor=none;align=left;verticalAlign=top;spacingLeft=4;spacingRight=4;overflow=hidden;rotatable=0;points=[[0,0.5],[1,0.5]];portConstraint=eastwest;whiteSpace=wrap;html=1;" parent="IyfgHkf5uxu5Sa50JoVY-21" vertex="1">
          <mxGeometry y="52" width="140" height="26" as="geometry" />
        </mxCell>
        <mxCell id="IyfgHkf5uxu5Sa50JoVY-24" value="+ field: type" style="text;strokeColor=none;fillColor=none;align=left;verticalAlign=top;spacingLeft=4;spacingRight=4;overflow=hidden;rotatable=0;points=[[0,0.5],[1,0.5]];portConstraint=eastwest;whiteSpace=wrap;html=1;" parent="IyfgHkf5uxu5Sa50JoVY-21" vertex="1">
          <mxGeometry y="78" width="140" height="26" as="geometry" />
        </mxCell>
        <mxCell id="IyfgHkf5uxu5Sa50JoVY-25" value="UseItemImpl" style="swimlane;fontStyle=0;childLayout=stackLayout;horizontal=1;startSize=26;fillColor=none;horizontalStack=0;resizeParent=1;resizeParentMax=0;resizeLast=0;collapsible=1;marginBottom=0;whiteSpace=wrap;html=1;" parent="1" vertex="1">
          <mxGeometry x="1266" y="816" width="140" height="104" as="geometry" />
        </mxCell>
        <mxCell id="IyfgHkf5uxu5Sa50JoVY-26" value="+ field: type" style="text;strokeColor=none;fillColor=none;align=left;verticalAlign=top;spacingLeft=4;spacingRight=4;overflow=hidden;rotatable=0;points=[[0,0.5],[1,0.5]];portConstraint=eastwest;whiteSpace=wrap;html=1;" parent="IyfgHkf5uxu5Sa50JoVY-25" vertex="1">
          <mxGeometry y="26" width="140" height="26" as="geometry" />
        </mxCell>
        <mxCell id="IyfgHkf5uxu5Sa50JoVY-27" value="+ field: type" style="text;strokeColor=none;fillColor=none;align=left;verticalAlign=top;spacingLeft=4;spacingRight=4;overflow=hidden;rotatable=0;points=[[0,0.5],[1,0.5]];portConstraint=eastwest;whiteSpace=wrap;html=1;" parent="IyfgHkf5uxu5Sa50JoVY-25" vertex="1">
          <mxGeometry y="52" width="140" height="26" as="geometry" />
        </mxCell>
        <mxCell id="IyfgHkf5uxu5Sa50JoVY-28" value="+ field: type" style="text;strokeColor=none;fillColor=none;align=left;verticalAlign=top;spacingLeft=4;spacingRight=4;overflow=hidden;rotatable=0;points=[[0,0.5],[1,0.5]];portConstraint=eastwest;whiteSpace=wrap;html=1;" parent="IyfgHkf5uxu5Sa50JoVY-25" vertex="1">
          <mxGeometry y="78" width="140" height="26" as="geometry" />
        </mxCell>
        <mxCell id="IyfgHkf5uxu5Sa50JoVY-29" value="ProbabilityCorrectionRuleImpl" style="swimlane;fontStyle=0;childLayout=stackLayout;horizontal=1;startSize=26;fillColor=none;horizontalStack=0;resizeParent=1;resizeParentMax=0;resizeLast=0;collapsible=1;marginBottom=0;whiteSpace=wrap;html=1;" parent="1" vertex="1">
          <mxGeometry x="1246" y="1150" width="180" height="104" as="geometry" />
        </mxCell>
        <mxCell id="IyfgHkf5uxu5Sa50JoVY-30" value="+ field: type" style="text;strokeColor=none;fillColor=none;align=left;verticalAlign=top;spacingLeft=4;spacingRight=4;overflow=hidden;rotatable=0;points=[[0,0.5],[1,0.5]];portConstraint=eastwest;whiteSpace=wrap;html=1;" parent="IyfgHkf5uxu5Sa50JoVY-29" vertex="1">
          <mxGeometry y="26" width="180" height="26" as="geometry" />
        </mxCell>
        <mxCell id="IyfgHkf5uxu5Sa50JoVY-31" value="+ field: type" style="text;strokeColor=none;fillColor=none;align=left;verticalAlign=top;spacingLeft=4;spacingRight=4;overflow=hidden;rotatable=0;points=[[0,0.5],[1,0.5]];portConstraint=eastwest;whiteSpace=wrap;html=1;" parent="IyfgHkf5uxu5Sa50JoVY-29" vertex="1">
          <mxGeometry y="52" width="180" height="26" as="geometry" />
        </mxCell>
        <mxCell id="IyfgHkf5uxu5Sa50JoVY-32" value="+ field: type" style="text;strokeColor=none;fillColor=none;align=left;verticalAlign=top;spacingLeft=4;spacingRight=4;overflow=hidden;rotatable=0;points=[[0,0.5],[1,0.5]];portConstraint=eastwest;whiteSpace=wrap;html=1;" parent="IyfgHkf5uxu5Sa50JoVY-29" vertex="1">
          <mxGeometry y="78" width="180" height="26" as="geometry" />
        </mxCell>
        <mxCell id="IyfgHkf5uxu5Sa50JoVY-33" value="SkyRuleImpl" style="swimlane;fontStyle=0;childLayout=stackLayout;horizontal=1;startSize=26;fillColor=none;horizontalStack=0;resizeParent=1;resizeParentMax=0;resizeLast=0;collapsible=1;marginBottom=0;whiteSpace=wrap;html=1;" parent="1" vertex="1">
          <mxGeometry x="1260" y="1500" width="140" height="104" as="geometry" />
        </mxCell>
        <mxCell id="IyfgHkf5uxu5Sa50JoVY-34" value="+ field: type" style="text;strokeColor=none;fillColor=none;align=left;verticalAlign=top;spacingLeft=4;spacingRight=4;overflow=hidden;rotatable=0;points=[[0,0.5],[1,0.5]];portConstraint=eastwest;whiteSpace=wrap;html=1;" parent="IyfgHkf5uxu5Sa50JoVY-33" vertex="1">
          <mxGeometry y="26" width="140" height="26" as="geometry" />
        </mxCell>
        <mxCell id="IyfgHkf5uxu5Sa50JoVY-35" value="+ field: type" style="text;strokeColor=none;fillColor=none;align=left;verticalAlign=top;spacingLeft=4;spacingRight=4;overflow=hidden;rotatable=0;points=[[0,0.5],[1,0.5]];portConstraint=eastwest;whiteSpace=wrap;html=1;" parent="IyfgHkf5uxu5Sa50JoVY-33" vertex="1">
          <mxGeometry y="52" width="140" height="26" as="geometry" />
        </mxCell>
        <mxCell id="IyfgHkf5uxu5Sa50JoVY-36" value="+ field: type" style="text;strokeColor=none;fillColor=none;align=left;verticalAlign=top;spacingLeft=4;spacingRight=4;overflow=hidden;rotatable=0;points=[[0,0.5],[1,0.5]];portConstraint=eastwest;whiteSpace=wrap;html=1;" parent="IyfgHkf5uxu5Sa50JoVY-33" vertex="1">
          <mxGeometry y="78" width="140" height="26" as="geometry" />
        </mxCell>
        <mxCell id="IyfgHkf5uxu5Sa50JoVY-37" value="" style="endArrow=block;dashed=1;endFill=0;endSize=12;html=1;rounded=0;exitX=0.5;exitY=0;exitDx=0;exitDy=0;entryX=0.5;entryY=1;entryDx=0;entryDy=0;" parent="1" source="IyfgHkf5uxu5Sa50JoVY-21" target="IP1F_LFjxFDL6-v84dJm-46" edge="1">
          <mxGeometry width="160" relative="1" as="geometry">
            <mxPoint x="1210" y="590" as="sourcePoint" />
            <mxPoint x="1330" y="480" as="targetPoint" />
          </mxGeometry>
        </mxCell>
        <mxCell id="IyfgHkf5uxu5Sa50JoVY-39" value="" style="endArrow=block;dashed=1;endFill=0;endSize=12;html=1;rounded=0;exitX=0.5;exitY=0;exitDx=0;exitDy=0;entryX=0.5;entryY=1;entryDx=0;entryDy=0;" parent="1" source="IyfgHkf5uxu5Sa50JoVY-25" target="IP1F_LFjxFDL6-v84dJm-41" edge="1">
          <mxGeometry width="160" relative="1" as="geometry">
            <mxPoint x="1210" y="790" as="sourcePoint" />
            <mxPoint x="1330" y="780" as="targetPoint" />
          </mxGeometry>
        </mxCell>
        <mxCell id="IyfgHkf5uxu5Sa50JoVY-40" value="" style="endArrow=block;dashed=1;endFill=0;endSize=12;html=1;rounded=0;exitX=0.5;exitY=0;exitDx=0;exitDy=0;entryX=0.5;entryY=1;entryDx=0;entryDy=0;" parent="1" source="IyfgHkf5uxu5Sa50JoVY-29" target="IP1F_LFjxFDL6-v84dJm-70" edge="1">
          <mxGeometry width="160" relative="1" as="geometry">
            <mxPoint x="1210" y="1090" as="sourcePoint" />
            <mxPoint x="1320" y="1110" as="targetPoint" />
          </mxGeometry>
        </mxCell>
        <mxCell id="IyfgHkf5uxu5Sa50JoVY-42" value="" style="endArrow=block;dashed=1;endFill=0;endSize=12;html=1;rounded=0;exitX=0.5;exitY=0;exitDx=0;exitDy=0;entryX=0.5;entryY=1;entryDx=0;entryDy=0;" parent="1" source="IyfgHkf5uxu5Sa50JoVY-33" target="gSzAR_MlpIHfEf4KSCXG-1" edge="1">
          <mxGeometry width="160" relative="1" as="geometry">
            <mxPoint x="1210" y="1290" as="sourcePoint" />
            <mxPoint x="1370" y="1290" as="targetPoint" />
          </mxGeometry>
        </mxCell>
        <mxCell id="IyfgHkf5uxu5Sa50JoVY-43" value="" style="endArrow=open;endFill=1;endSize=12;html=1;rounded=0;entryX=-0.024;entryY=0.077;entryDx=0;entryDy=0;entryPerimeter=0;" parent="1" source="IP1F_LFjxFDL6-v84dJm-62" target="IyfgHkf5uxu5Sa50JoVY-21" edge="1">
          <mxGeometry width="160" relative="1" as="geometry">
            <mxPoint x="900" y="360" as="sourcePoint" />
            <mxPoint x="1060" y="360" as="targetPoint" />
            <Array as="points">
              <mxPoint x="1080" y="80" />
              <mxPoint x="1080" y="394" />
              <mxPoint x="1080" y="530" />
            </Array>
          </mxGeometry>
        </mxCell>
        <mxCell id="IyfgHkf5uxu5Sa50JoVY-51" value="ItemComponentNodeImpl" style="swimlane;fontStyle=0;childLayout=stackLayout;horizontal=1;startSize=26;fillColor=none;horizontalStack=0;resizeParent=1;resizeParentMax=0;resizeLast=0;collapsible=1;marginBottom=0;whiteSpace=wrap;html=1;" parent="1" vertex="1">
          <mxGeometry x="1260" y="141" width="140" height="112" as="geometry" />
        </mxCell>
        <mxCell id="IyfgHkf5uxu5Sa50JoVY-52" value="+ String itemName" style="text;strokeColor=none;fillColor=none;align=left;verticalAlign=top;spacingLeft=4;spacingRight=4;overflow=hidden;rotatable=0;points=[[0,0.5],[1,0.5]];portConstraint=eastwest;whiteSpace=wrap;html=1;" parent="IyfgHkf5uxu5Sa50JoVY-51" vertex="1">
          <mxGeometry y="26" width="140" height="26" as="geometry" />
        </mxCell>
        <mxCell id="IyfgHkf5uxu5Sa50JoVY-53" value="+ Int itemId" style="text;strokeColor=none;fillColor=none;align=left;verticalAlign=top;spacingLeft=4;spacingRight=4;overflow=hidden;rotatable=0;points=[[0,0.5],[1,0.5]];portConstraint=eastwest;whiteSpace=wrap;html=1;" parent="IyfgHkf5uxu5Sa50JoVY-51" vertex="1">
          <mxGeometry y="52" width="140" height="26" as="geometry" />
        </mxCell>
        <mxCell id="McvhYWT-qsM6TDWtwj8m-3" value="" style="line;strokeWidth=1;fillColor=none;align=left;verticalAlign=middle;spacingTop=-1;spacingLeft=3;spacingRight=3;rotatable=0;labelPosition=right;points=[];portConstraint=eastwest;strokeColor=inherit;" parent="IyfgHkf5uxu5Sa50JoVY-51" vertex="1">
          <mxGeometry y="78" width="140" height="8" as="geometry" />
        </mxCell>
        <mxCell id="IyfgHkf5uxu5Sa50JoVY-54" value="+ field: type" style="text;strokeColor=none;fillColor=none;align=left;verticalAlign=top;spacingLeft=4;spacingRight=4;overflow=hidden;rotatable=0;points=[[0,0.5],[1,0.5]];portConstraint=eastwest;whiteSpace=wrap;html=1;" parent="IyfgHkf5uxu5Sa50JoVY-51" vertex="1">
          <mxGeometry y="86" width="140" height="26" as="geometry" />
        </mxCell>
        <mxCell id="IyfgHkf5uxu5Sa50JoVY-56" value="" style="endArrow=block;dashed=1;endFill=0;endSize=12;html=1;rounded=0;exitX=0.5;exitY=0;exitDx=0;exitDy=0;" parent="1" source="IyfgHkf5uxu5Sa50JoVY-51" target="IP1F_LFjxFDL6-v84dJm-28" edge="1">
          <mxGeometry width="160" relative="1" as="geometry">
            <mxPoint x="1410" y="270" as="sourcePoint" />
            <mxPoint x="1570" y="270" as="targetPoint" />
          </mxGeometry>
        </mxCell>
        <mxCell id="IyfgHkf5uxu5Sa50JoVY-57" value="" style="endArrow=open;endFill=1;endSize=12;html=1;rounded=0;exitX=1;exitY=0.5;exitDx=0;exitDy=0;entryX=-0.019;entryY=0.115;entryDx=0;entryDy=0;entryPerimeter=0;" parent="1" source="IP1F_LFjxFDL6-v84dJm-62" target="IyfgHkf5uxu5Sa50JoVY-51" edge="1">
          <mxGeometry width="160" relative="1" as="geometry">
            <mxPoint x="1000" y="348" as="sourcePoint" />
            <mxPoint x="1160" y="348" as="targetPoint" />
            <Array as="points">
              <mxPoint x="1090" y="79" />
              <mxPoint x="1090" y="150" />
            </Array>
          </mxGeometry>
        </mxCell>
        <mxCell id="IyfgHkf5uxu5Sa50JoVY-63" value="" style="endArrow=open;endFill=1;endSize=12;html=1;rounded=0;exitX=1;exitY=1;exitDx=0;exitDy=0;entryX=0;entryY=0.25;entryDx=0;entryDy=0;" parent="1" source="IP1F_LFjxFDL6-v84dJm-2" target="IyfgHkf5uxu5Sa50JoVY-64" edge="1">
          <mxGeometry width="160" relative="1" as="geometry">
            <mxPoint x="1580" y="-460" as="sourcePoint" />
            <mxPoint x="1740" y="-460" as="targetPoint" />
          </mxGeometry>
        </mxCell>
        <mxCell id="IyfgHkf5uxu5Sa50JoVY-64" value="&lt;p style=&quot;margin:0px;margin-top:4px;text-align:center;&quot;&gt;&lt;b&gt;&amp;lt;&amp;lt;singleton&amp;gt;&amp;gt;&lt;br&gt;GachaModelManager&lt;/b&gt;&lt;/p&gt;&lt;hr size=&quot;1&quot;&gt;&lt;p style=&quot;margin:0px;margin-left:4px;&quot;&gt;+ field: Type&lt;/p&gt;&lt;hr size=&quot;1&quot;&gt;&lt;p style=&quot;margin:0px;margin-left:4px;&quot;&gt;+ method(): Type&lt;/p&gt;" style="verticalAlign=top;align=left;overflow=fill;fontSize=12;fontFamily=Helvetica;html=1;whiteSpace=wrap;" parent="1" vertex="1">
          <mxGeometry x="1676.5" y="-320" width="160" height="90" as="geometry" />
        </mxCell>
        <mxCell id="IyfgHkf5uxu5Sa50JoVY-65" value="" style="endArrow=open;endFill=1;endSize=12;html=1;rounded=0;exitX=0.5;exitY=1;exitDx=0;exitDy=0;entryX=0.5;entryY=0;entryDx=0;entryDy=0;" parent="1" source="IyfgHkf5uxu5Sa50JoVY-64" target="IP1F_LFjxFDL6-v84dJm-37" edge="1">
          <mxGeometry width="160" relative="1" as="geometry">
            <mxPoint x="1550" y="-330" as="sourcePoint" />
            <mxPoint x="1710" y="-330" as="targetPoint" />
          </mxGeometry>
        </mxCell>
        <mxCell id="McvhYWT-qsM6TDWtwj8m-1" value="모델" style="text;html=1;strokeColor=none;fillColor=none;align=center;verticalAlign=middle;whiteSpace=wrap;rounded=0;" parent="1" vertex="1">
          <mxGeometry x="1530" y="-1040" width="60" height="30" as="geometry" />
        </mxCell>
        <mxCell id="McvhYWT-qsM6TDWtwj8m-2" value="json" style="shape=parallelogram;html=1;strokeWidth=2;perimeter=parallelogramPerimeter;whiteSpace=wrap;rounded=1;arcSize=12;size=0.23;" parent="1" vertex="1">
          <mxGeometry x="1510" y="-550" width="100" height="60" as="geometry" />
        </mxCell>
      </root>
    </mxGraphModel>
  </diagram>
</mxfile>
